<svg xmlns="http://www.w3.org/2000/svg" viewBox="0 0 690.23 611.94"><defs><style>.cls-1{fill:#f9539e;}.cls-2{fill:#716558;}.cls-3{fill:#fff;}.cls-4{fill:#17e9ff;}.cls-5{fill:#187dd1;}.cls-6{fill:#db2e7d;}.cls-7{fill:#ffedc0;}.cls-8{fill:#fff100;}.cls-9{fill:#f6921e;}.cls-10{fill:#e5a070;}.cls-11{fill:#16abd3;}.cls-12{fill:#bc794b;}.cls-13{fill:#99582b;}.cls-14{font-size:102.05px;font-family:LithosPro-Regular, Lithos Pro;}</style></defs><title>logo-2</title><g id="Слой_2" data-name="Слой 2"><g id="element"><path class="cls-1" d="M491.47,214.88l-12.09,0-5.72,0a193.69,193.69,0,0,0-33.15-42.29,172.1,172.1,0,0,0-36.72-27.25c3,.9,6,1.93,8.94,3h0c18.49,7,35.7,18.15,51.46,33.32A185.65,185.65,0,0,1,491.47,214.88Z"/><path class="cls-2" d="M473.23,227.93a8.55,8.55,0,0,0-1.76.19h0a8.38,8.38,0,0,0-6.54,9.14l3,25.67a63.37,63.37,0,0,1,40.33-14.44h.22l-8.51-16.06a8.33,8.33,0,0,0-7.37-4.44l-19.3-.06Z"/><path class="cls-3" d="M193.31,261.61c-.1.14-.18.3-.27.44-.46.78-.9,1.55-1.34,2.33-.15.25-.28.5-.43.75-19.32,14.86-34,38.47-40.38,65C141,371.4,152.2,412.53,178.26,434c.71.59,1.41,1.15,2.13,1.69a50.07,50.07,0,0,1-15.7-1.23c-35.56-8.54-55.25-53.95-43.9-101.22C130.68,292.05,161.1,262.07,193.31,261.61Z"/><path class="cls-4" d="M199.16,262.27c-.1.15-.18.3-.27.45-.46.77-.9,1.55-1.34,2.33-.15.25-.28.5-.43.74-19.32,14.87-34,38.47-40.38,65-9.9,41.23,1.31,82.35,27.38,103.83.7.58,1.4,1.14,2.12,1.69a50.39,50.39,0,0,1-15.7-1.23c-35.56-8.55-55.25-53.95-43.9-101.23C136.53,292.72,167,262.74,199.16,262.27Z"/><path class="cls-5" d="M191.7,264.38c-.15.25-.28.5-.43.75-19.32,14.86-34,38.47-40.38,65C141,371.4,152.2,412.53,178.26,434c-34.61-9.43-53.61-54.23-42.42-100.86C144,299.18,166.12,272.83,191.7,264.38Z"/><path class="cls-1" d="M290.82,144.76A158.39,158.39,0,0,0,254.43,173,179.16,179.16,0,0,0,224,215.37a20.88,20.88,0,0,0-4.74-.54h-3.62l-9.56,0a170.16,170.16,0,0,1,24.94-33.09c15.89-16.36,33.74-28,53.37-34.95Q287.58,145.71,290.82,144.76Z"/><path class="cls-6" d="M167.59,362.23q.06-3.24.19-6.43c0-.4,0-.79.05-1.19.1-2.06.21-4.1.35-6.12l0-.54q.22-3.18.53-6.3c0-.44.09-.88.13-1.31.21-2,.43-4.09.69-6.1,0-.32.08-.64.12-.95.25-1.9.51-3.78.8-5.64,0-.28.08-.55.13-.82q.46-3,1-5.88l.24-1.24c.37-1.95.76-3.87,1.18-5.78l.15-.66c.4-1.79.83-3.56,1.27-5.32.08-.32.16-.65.25-1,.38-1.49.78-3,1.19-4.44a113.1,113.1,0,0,0-12.27,30.69c-6.79,28.25-2.64,56.24,10,75.91l-.17-.62c-.1-.35-.19-.7-.29-1-.17-.64-.35-1.28-.52-1.92l-.27-1-.36-1.45c-.14-.55-.28-1.1-.41-1.65s-.25-1.09-.37-1.63l-.33-1.46c-.07-.33-.15-.67-.22-1-.16-.76-.31-1.51-.46-2.26,0-.08,0-.15,0-.23-.07-.37-.15-.74-.22-1.11l-.09-.43c-.14-.75-.26-1.5-.39-2.25-.09-.57-.2-1.15-.29-1.73,0-.07,0-.15,0-.23l-.06-.42c-.08-.53-.15-1.06-.23-1.59s-.17-1.12-.24-1.68c0-.24-.05-.48-.09-.73-.05-.46-.1-.93-.16-1.39v-.13c-.06-.54-.13-1.07-.18-1.61s-.08-.84-.12-1.26l-.12-1.48c0-.35-.07-.71-.09-1.06-.05-.65-.08-1.29-.11-1.94,0-.43-.06-.87-.08-1.3,0-.16,0-.33,0-.5,0-1.23-.08-2.46-.09-3.68q0-3.4,0-6.76C167.57,363.12,167.58,362.67,167.59,362.23Z"/><path class="cls-2" d="M201.73,249A148.35,148.35,0,0,1,220.6,228a9.24,9.24,0,0,0-1.3-.11h0L200,228a8.37,8.37,0,0,0-7.38,4.45l-8.95,16.89a66,66,0,0,1,10.42-.84A63.27,63.27,0,0,1,201.73,249Z"/><path class="cls-7" d="M439.8,367.27c-8.46-35.17-1.34-69.58,16.3-92.24l-4.19-36.26A21.43,21.43,0,0,1,457.22,222c.35-.39.72-.74,1.1-1.1-23.9-17.58-54.16-26.72-90.28-27.27h0c-1.49,0-3,0-4.51,0q-7.35,0-15,.52c-64.25,4.17-110.81,26.26-138.41,65.67h0a142.65,142.65,0,0,0-8,12.84c-.91,1.66-1.78,3.33-2.63,5-9.36,18.71-15.26,40.42-17.62,64.85a267.29,267.29,0,0,0-1.18,27.7c0,1.11,0,2.24.09,3.36,0,.36,0,.73.06,1.09,0,.78.08,1.56.14,2.35,0,.42.07.87.11,1.29.06.73.12,1.47.19,2.2.05.48.11,1,.17,1.45.09.7.16,1.4.25,2.1.07.52.16,1,.23,1.54.1.69.19,1.38.31,2.08.08.53.18,1.08.28,1.63s.22,1.35.36,2,.23,1.13.34,1.69.27,1.36.41,2,.27,1.16.4,1.74.3,1.37.47,2.05.31,1.21.46,1.82.33,1.35.52,2,.35,1.27.53,1.9.36,1.33.55,2,.4,1.3.59,1.95.41,1.33.61,2,.45,1.36.66,2,.43,1.31.65,2,.48,1.38.73,2.07.45,1.33.69,2,.52,1.42.79,2.12.49,1.33.74,2,.56,1.45.85,2.17.52,1.33.79,2l.91,2.19c.25.64.51,1.27.79,1.91a5.78,5.78,0,0,1,.32.76c.78,1.83,1.62,3.72,2.56,5.77h0a250.83,250.83,0,0,0,15.93,29.62,6.56,6.56,0,0,1,1.06,3.82c0,.11-.39,11.14-.39,22,0,4.42-1.82,8.94-3.58,13.31s-3.9,9.67-2.67,12c.41.76,2.06,2.68,8.59,4a30.6,30.6,0,0,0,10,.59,19.31,19.31,0,0,0,16.24-12.59c0-.06,0-.11.07-.16a2.39,2.39,0,0,1,.15-.37l.24-.49a6.4,6.4,0,0,1,.42-.64l.11-.15a6.54,6.54,0,0,1,11.76,3.94c0,.07,0,.15,0,.22a6,6,0,0,1-.06.73v0c-.1,1-.64,8.06,3.41,12.59,2.77,3.1,7.43,4.62,13.86,4.55,20.76-.27,23.89-16.42,24.18-18.27v0a6.09,6.09,0,0,1,.49-1.64,2.56,2.56,0,0,1,.11-.24,6.54,6.54,0,0,1,12.43,2.85c0,.18,0,.38,0,.59-.17,4,.61,15.93,15.26,16.69,17.26.9,21.29-16.74,21.45-17.49a6.56,6.56,0,0,1,12.87.3c.52,2.85,4,17.18,21,15.25,6.35-.73,10.42-2.86,12.09-6.32,2.39-4.94.59-13.51-4.58-21.84a6.47,6.47,0,0,1-1-3.1c-1.59-28.62,4.14-49.7,17-62.68,10.11-10.17,20.78-11.25,22-11.35a6.55,6.55,0,1,1,1,13.07c-.62.07-9.34,1.15-16.73,11.05A56.38,56.38,0,0,1,424.13,445a6.55,6.55,0,1,1,.95,13.07c-13.61,1-19.11,6.22-21.15,9.18,30.56-2.4,55.91-13.77,75.58-33.86.3-.29.58-.59.87-.89C461.41,417.91,446.4,394.8,439.8,367.27Zm-75.39-66.48c.87.31,1.65.67,2.39,1a31.38,31.38,0,0,1,3.76,1.86c1,.55,1.78,1.06,2.31,1.37l.8.52-.95-.07c-.62-.06-1.53-.1-2.65-.23s-2.5-.21-4-.32c-.79,0-1.59-.17-2.45-.18l-2.69-.08c-.93-.06-1.89,0-2.88,0s-2,0-3,.11-2.09.11-3.15.28-2.13.25-3.21.5l-1.61.35a11.3,11.3,0,0,0-1.6.39c-1,.34-2.15.59-3.18,1l-1.57.59c-.5.26-1,.49-1.53.72-1.05.42-2,1.07-3,1.59a38.5,38.5,0,0,0-5.48,4,13.62,13.62,0,0,0-1.26,1.15l-1.23,1.15c-.76.84-1.56,1.62-2.27,2.48a72.06,72.06,0,0,0-7.26,10.11c-1.94,3.2-3.42,6-4.46,8.05-.49,1-.9,1.83-1.16,2.37l-.42.86s0-.33-.05-1,0-1.54,0-2.69a40.84,40.84,0,0,1,.45-4.17,44.58,44.58,0,0,1,1.18-5.35,48.43,48.43,0,0,1,2.22-6.17,43.8,43.8,0,0,1,3.57-6.5,37.83,37.83,0,0,1,11.84-11.48,36.33,36.33,0,0,1,3.83-2c.65-.29,1.31-.57,2-.84l2-.64a34.11,34.11,0,0,1,8.07-1.44c1.31-.1,2.6-.06,3.86,0s2.45.21,3.63.34a31.05,31.05,0,0,1,3.37.6,26.78,26.78,0,0,1,3.06.8ZM221.63,306.5c.5-.33,1.24-.86,2.22-1.44l1.61-1c.61-.34,1.27-.65,2-1l2.27-1.08,0,0c.82-.38,1.71-.66,2.64-1s1.89-.73,2.94-1l3.24-.82a41.78,41.78,0,0,1,7.32-.83,33,33,0,0,1,5.29.31c.92.12,1.84.29,2.77.5a30.24,30.24,0,0,1,8,3.13,31.64,31.64,0,0,1,3.61,2.43c.56.44,1.09.94,1.63,1.41a17.69,17.69,0,0,1,1.5,1.5,30.69,30.69,0,0,1,4.76,6.6A37.37,37.37,0,0,1,276.3,321a44.88,44.88,0,0,1,1.42,6.32,42.19,42.19,0,0,1,.42,5.39,39,39,0,0,1-.14,4.13,25.47,25.47,0,0,1-.36,2.63c-.1.6-.18.92-.18.92l-.29-.9c-.19-.57-.46-1.4-.82-2.46-.73-2.1-1.79-5.06-3.27-8.41-.73-1.66-1.59-3.43-2.56-5.21a46.85,46.85,0,0,0-3.34-5.3,34.67,34.67,0,0,0-4.25-4.82c-.74-.78-1.65-1.36-2.45-2.08a26.22,26.22,0,0,0-2.7-1.72,28.81,28.81,0,0,0-5.89-2.55l-1.57-.38a9.66,9.66,0,0,0-1.57-.37c-1.08-.15-2.12-.43-3.19-.49a59.08,59.08,0,0,0-6.3-.32c-2,.08-4,.08-5.84.29-.92.07-1.81.11-2.66.21l-2.39.29-2.15.2-.87.13-1,.13c-1.09.17-2,.24-2.6.31l-.93.08Zm5.07,130.69c.72-.35,14.62-7.28,14.62-20.05-23.19,12.24-40.11,5.44-47.79-10.58-6.51-13.62-6.32-33.91,2.38-54.84a72.12,72.12,0,0,1,15-23c23.55-23.91,58.33-20.46,61.18,31.22C275.6,423.71,228.13,436.81,226.7,437.19Zm60.18,26.22c-23.82,26.41-47.85,0-33.35-16.88s33.35-32.17,33.35-32.17,26.62,15.69,35.95,33.36S312.71,488.63,286.88,463.41Zm54.26-3.66a19,19,0,0,1-2,6.58,16.5,16.5,0,0,1-3.52,4.5,15.32,15.32,0,0,1-3.59,2.33,12.48,12.48,0,0,1-2.54.83l-.92.15s.26-.19.76-.52a21,21,0,0,0,1.9-1.64,15.91,15.91,0,0,0,4.07-7.19,17.84,17.84,0,0,0,.44-5.25,11.64,11.64,0,0,0-.16-1.42,9.2,9.2,0,0,0-.22-1.46c-.12-.49-.23-1-.32-1.49a14.09,14.09,0,0,0-.44-1.44c-.16-.5-.25-.91-.46-1.48s-.43-1.11-.66-1.68l-.32-.85,0-.07a.43.43,0,0,0,0,.05l0,0-.1-.18-.19-.37-.72-1.46a52,52,0,0,0-3.69-5.8c-1.37-1.92-2.87-3.8-4.4-5.63s-3.07-3.61-4.6-5.33c-3.07-3.43-6-6.61-8.57-9.35-1.28-1.37-2.45-2.64-3.49-3.77s-1.93-2.14-2.68-3-1.32-1.5-1.72-1.93-.55-.64-.59-.7l.84.37c.53.25,1.35.62,2.33,1.14s2.21,1.15,3.54,1.94,2.84,1.71,4.43,2.77,3.28,2.27,5,3.59,3.55,2.81,5.33,4.43c.92.78,1.8,1.63,2.69,2.51s1.8,1.74,2.65,2.71a62.77,62.77,0,0,1,5,6,42.89,42.89,0,0,1,4.12,6.94c.28.63.55,1.26.82,1.89l.19.47.1.23.09.26,0,.1.26.88c.16.58.34,1.16.5,1.74s.29,1.32.43,2A25,25,0,0,1,341.14,459.75Zm12.47-42.61c0,13.11,16.29,20.06,16.29,20.06s-54.42-12.51-50.44-77.26,63.54-53.78,84.59-8.22S401.28,439.78,353.61,417.14Z"/><path class="cls-4" d="M589,334.38c-6.25-26-20.68-47.55-38.58-60a64.42,64.42,0,0,0-24.13-10.57l-.26-.05a53.86,53.86,0,0,0-6.06-.85c-1.41-.11-2.83-.18-4.25-.18a50.22,50.22,0,0,0-11.79,1.4,53.6,53.6,0,0,0-28.27,17.79c-.1.14-.22.27-.34.42-16.32,19.4-23,50.76-15.29,83a112.7,112.7,0,0,0,14.75,34.82,89.16,89.16,0,0,0,25.72,26.46,6.35,6.35,0,0,1,1.43.9l0,0a63.42,63.42,0,0,0,19.57,8.12A53.87,53.87,0,0,0,533.3,437a50.3,50.3,0,0,0,11.8-1.39C580.66,427.06,600.35,381.66,589,334.38Zm-90.82,56.86a117.07,117.07,0,0,1-13.91-34.06c-10.07-41.94,2.54-79.7,28.71-86a31.64,31.64,0,0,1,7.39-.87,33.85,33.85,0,0,1,8.8,1.18,44.67,44.67,0,0,1,14,6.69c15.3,10.64,28.32,31.25,34.4,56.56,4.66,19.39,4.55,38.8-.29,54.65-5.21,17.07-15.31,28.19-28.42,31.33a31.06,31.06,0,0,1-7.39.88c-.44,0-.86,0-1.29,0C524.73,421,509.41,409.38,498.17,391.24Zm86.63-.69c-4.22,13.78-11.61,23.69-21.21,28.64,18.22-19.05,26.06-52,17.91-85.95-5.35-22.31-16.73-41.34-31.16-54.13l.35.22C566,290,579,310.59,585.09,335.9,589.74,355.29,589.64,374.7,584.8,390.55Z"/><path class="cls-5" d="M537.62,434.45a50.37,50.37,0,0,1-11.8,1.4c-10.89,0-21.58-3.39-31.37-9.45l0,0a6.66,6.66,0,0,0-1.42-.9A88.93,88.93,0,0,1,467.29,399a61.09,61.09,0,0,0,15.79,0c5.26-.62,10.31-3.41,15.09-7.75,25.85-23.49,43.9-92.61,45-113a15,15,0,0,0-.28-4.95c17.9,12.44,32.34,34,38.58,60C592.86,380.51,573.17,425.92,537.62,434.45Z"/><path class="cls-1" d="M564.78,385.57C561,398,554.25,406,545.83,408a18.51,18.51,0,0,1-4.33.51c-17.63,0-37.17-23.89-44.5-54.39-8.07-33.62.64-65.76,19-70.17a18.37,18.37,0,0,1,4.32-.52c17.63,0,37.17,23.89,44.5,54.4C569,355,569,371.93,564.78,385.57Z"/><path class="cls-6" d="M558.36,378.05c-3.08,10.08-8.53,16.53-15.35,18.17a15.37,15.37,0,0,1-3.51.41c-14.28,0-30.11-19.36-36.05-44.07-6.54-27.24.52-53.28,15.42-56.85a15.22,15.22,0,0,1,3.5-.41c14.28,0,30.12,19.35,36,44.07C561.76,353.26,561.74,367,558.36,378.05Z"/><path class="cls-1" d="M553.4,372.24c-2.52,8.26-7,13.54-12.57,14.88a12.13,12.13,0,0,1-2.88.34c-11.69,0-24.66-15.85-29.53-36.09-5.35-22.31.43-43.64,12.64-46.56a11.93,11.93,0,0,1,2.87-.35c11.69,0,24.66,15.86,29.52,36.1C556.19,351.94,556.17,363.19,553.4,372.24Z"/><path class="cls-8" d="M543.25,329.11a7.9,7.9,0,0,0-4.83-1.79,6.55,6.55,0,0,0-1.72.23,7.4,7.4,0,0,0-4.8,4.74l-.93,2.45-2.09-1.61a7.89,7.89,0,0,0-4.83-1.8,6.28,6.28,0,0,0-1.73.24,7.38,7.38,0,0,0-4.79,4.74,14,14,0,0,0,4.25,15.2l17.69,13.64,7.1-18.38.94-2.45A14,14,0,0,0,543.25,329.11Z"/><path class="cls-9" d="M538.94,337.87a3.89,3.89,0,0,0-2.36-.88,3,3,0,0,0-.84.12,3.62,3.62,0,0,0-2.34,2.31l-.46,1.2-1-.79a3.85,3.85,0,0,0-2.35-.87,3.48,3.48,0,0,0-.85.11,3.62,3.62,0,0,0-2.34,2.31,6.82,6.82,0,0,0,2.08,7.43l8.64,6.66,3.46-9,.46-1.2A6.82,6.82,0,0,0,538.94,337.87Z"/><path class="cls-10" d="M418.46,425.4s20.32-8.26,43,3.44c-18.76-.34-23.75,5.17-23.75,5.17a14.08,14.08,0,0,1,12.57,9.15,50.59,50.59,0,0,1,3.61,18l-44.74,9.64s-12.56-.17-12.56-.86"/><path class="cls-10" d="M480.38,432.46c-.29.3-.57.6-.87.89-83.57-61.66-34.48-127-46.24-184-6.1-29.59-36.22-46.33-65.23-55.71,36.12.55,66.38,9.69,90.28,27.27-.38.36-.75.71-1.1,1.1a21.43,21.43,0,0,0-5.31,16.78L456.1,275c-17.64,22.66-24.76,57.07-16.3,92.24C446.4,394.8,461.41,417.91,480.38,432.46Z"/><path class="cls-10" d="M322.54,322.59s20.65-28.65,58.34-10.32c19.87,11.87,32,40.78,32,40.78s-8.78-44.14-34.59-56-53.82,3.1-59,20.39"/><path class="cls-10" d="M265,314.46S227.56,288,196.33,328c7.75-27.87,39.3-46.15,69.2-23.33"/><path class="cls-10" d="M309.9,375.83s4.1,49.74,55.6,62.91C328,436.67,306.76,419.1,309.9,375.83Z"/><path class="cls-10" d="M278.15,378.08s-3.1,42.85-39.49,60.66C279.18,429.7,283.58,394.09,278.15,378.08Z"/><path class="cls-10" d="M389.39,465.67s6-49.73,55.75-54.38C426.39,418.86,423,432.63,423,432.63"/><path class="cls-10" d="M336.48,444.48s16.52,29.1-21.94,38.14C363.32,478.74,346.55,447.13,336.48,444.48Z"/><path class="cls-10" d="M242.79,449.06s-12.13,29.68,26.07,33.56C238.66,485.2,223.8,469.71,242.79,449.06Z"/><path class="cls-3" d="M363.52,193.6c-30.17,8.31-76,22.65-95.95,37.71-30.85,23.31-6.73,55.16-16.41,67.31a1.34,1.34,0,0,1-.11.14L229.73,302l0,0c-.18.17-1.93,1.8-4.36,4.51-4.31,4.79-10.78,12.93-14.45,22.22-2.64,6.67-3.86,13.93-1.84,21,6.55,22.72-15.75,51.28-15.75,51.28a27.09,27.09,0,0,0,.22,5.59c1.16,8.72,6.82,24.82,32.74,26.79a18.94,18.94,0,0,1-17.87,5.4c.62.53,16.51,13.95,17.18,24.8.69,11.06-1.37,40.31-1.37,40.31a40.91,40.91,0,0,0,2.91,19.06,30.6,30.6,0,0,1-10-.59c-6.53-1.36-8.18-3.28-8.59-4-1.23-2.31.94-7.67,2.67-12s3.58-8.89,3.58-13.31c0-10.87.39-21.9.39-22a6.56,6.56,0,0,0-1.06-3.82,250.83,250.83,0,0,1-15.93-29.62h0c-.94-2.05-1.78-3.94-2.56-5.77a5.78,5.78,0,0,0-.32-.76c-.28-.64-.54-1.27-.79-1.91l-.91-2.19c-.27-.67-.53-1.34-.79-2s-.58-1.45-.85-2.17-.5-1.33-.74-2-.53-1.41-.79-2.12-.47-1.32-.69-2-.5-1.39-.73-2.07-.43-1.32-.65-2-.44-1.36-.66-2-.4-1.33-.61-2-.4-1.3-.59-1.95-.37-1.33-.55-2-.36-1.27-.53-1.9-.35-1.35-.52-2-.32-1.21-.46-1.82-.31-1.37-.47-2.05-.27-1.16-.4-1.74-.28-1.35-.41-2-.24-1.13-.34-1.69-.24-1.36-.36-2-.2-1.1-.28-1.63c-.12-.7-.21-1.39-.31-2.08-.07-.51-.16-1-.23-1.54-.09-.7-.16-1.4-.25-2.1-.06-.49-.12-1-.17-1.45-.07-.73-.13-1.47-.19-2.2,0-.42-.08-.87-.11-1.29-.06-.79-.1-1.57-.14-2.35,0-.36,0-.73-.06-1.09,0-1.12-.08-2.25-.09-3.36a267.29,267.29,0,0,1,1.18-27.7c2.36-24.43,8.26-46.14,17.62-64.85.85-1.7,1.72-3.37,2.63-5a142.65,142.65,0,0,1,8-12.84h0c27.6-39.41,74.16-61.5,138.41-65.67Q356.16,193.63,363.52,193.6Z"/><path class="cls-3" d="M281.8,248.21a7.59,7.59,0,0,0-5.19,5.6c-1.13,5-1.42,13.72,5.67,23.61,11.1,15.49,27.36-4.08,16.78-14a28,28,0,0,1-7.43-10.49,7.68,7.68,0,0,0-9.46-4.79Z"/><path class="cls-10" d="M430,328s5.2-64.5-22-89.38c25.29,10.7,34.75,34,34.75,34"/><path class="cls-10" d="M304,506.7s-12.66-2.15-19.62,8.44S274.8,535.78,257,536.3c23,2.58,33.55-2.06,33.55-2.06l10.07-7.49"/><path class="cls-10" d="M353.76,507.89a25,25,0,0,0-20.38,11.89c-7.48,12.13-8.78,16.58-22.19,16.26s19.89,0,19.89,0l16.54-10.86,3.53-3.4"/><path class="cls-10" d="M391.63,456.08s-6.88,18.53-6.88,47.18c-.26,15.23,11.35,33.33-10.07,32.8l24.52-6.21s4.39-11.1,3.61-15.49a127.53,127.53,0,0,0-3.61-16c-1.55-4.65-2.58-18.07-2.58-18.07"/><path class="cls-10" d="M417.27,387.38s4.9,23-12.13,37.42-31.47,8.55-31.47,8.55,21.48,11.07,38.09-2.87S417.27,387.38,417.27,387.38Z"/><path class="cls-11" d="M443.17,378.93l.84,3.16A17.8,17.8,0,0,1,443.17,378.93Z"/><path class="cls-11" d="M539.19,266l-2.94-.91S537.42,264.1,539.19,266Z"/><path class="cls-5" d="M491.86,415.77s-30.5-31.49-27-90.86c2.74,27.62,19.44,72.17,46.1,90.86"/><path class="cls-3" d="M521.51,435.67a60.84,60.84,0,0,1-27.06-9.27l0,0a6.66,6.66,0,0,0-1.42-.9A88.93,88.93,0,0,1,467.29,399a112.27,112.27,0,0,1-14.75-34.81c-7.75-32.24-1-63.61,15.28-83,.13-.14.24-.28.35-.42A53.54,53.54,0,0,1,496.43,263a50.28,50.28,0,0,1,11.79-1.39,54.22,54.22,0,0,1,10.32,1l.26.05c.39.07.77.16,1.16.25-1.41-.11-2.83-.18-4.25-.18a50.22,50.22,0,0,0-11.79,1.4,53.6,53.6,0,0,0-28.27,17.79c-.1.14-.22.27-.34.42-16.32,19.4-23,50.76-15.29,83a112.7,112.7,0,0,0,14.75,34.82,89.16,89.16,0,0,0,25.72,26.46,6.35,6.35,0,0,1,1.43.9l0,0A63.42,63.42,0,0,0,521.51,435.67Z"/><path class="cls-5" d="M500,391.69a116.89,116.89,0,0,1-13.91-34.05c-10.06-41.94,2.54-79.71,28.72-86a31.51,31.51,0,0,1,7.39-.87c.43,0,.88,0,1.31,0a34.28,34.28,0,0,0-8.8-1.18,31.58,31.58,0,0,0-7.39.87c-26.17,6.29-38.78,44.05-28.71,86a117.07,117.07,0,0,0,13.91,34.06c11.24,18.14,26.56,29.73,42,30.34C521.7,417.5,509.42,406.9,500,391.69Z"/><path class="cls-3" d="M479.38,214.85l-5.72,0a193.69,193.69,0,0,0-33.15-42.29,172.1,172.1,0,0,0-36.72-27.25c3,.9,6,1.93,8.94,3h0C433.73,160.1,461.72,181,479.38,214.85Z"/><path class="cls-3" d="M284.42,146.83c-15.59,7.08-47.38,25.87-68.75,68l-9.56,0a170.16,170.16,0,0,1,24.94-33.09C246.94,165.42,264.79,153.74,284.42,146.83Z"/><path d="M524.35,250.51l-12.84-24.22a22,22,0,0,0-2.05-3.14,6.48,6.48,0,0,0-.52-4.3c-.46-.95-11.73-23.53-35.31-46.31-31.37-30.31-69.73-46.33-110.93-46.33a154.47,154.47,0,0,0-16.51.89,157.6,157.6,0,0,0-16.61-.89c-52.15,0-87.67,25.45-108.28,46.8a176.8,176.8,0,0,0-31.39,44.4,21.41,21.41,0,0,0-8.88,8.88l-14.24,26.87a6.83,6.83,0,0,0-.53,1.33c-27,11.81-49.66,40.07-58.21,75.68-13,54.3,11,106.81,53.57,117A63.27,63.27,0,0,0,176.46,449a66.14,66.14,0,0,0,12.09-1.14A267.18,267.18,0,0,0,202,472.57c-.11,3.76-.33,12.13-.33,20.43,0,1.87-1.4,5.35-2.64,8.41-2.76,6.84-6.19,15.35-2.07,23.06,2.85,5.33,8.56,8.83,17.46,10.69a46.86,46.86,0,0,0,9.61,1,33.26,33.26,0,0,0,21.65-7.46,25.11,25.11,0,0,0,4,6c5.29,5.93,13.07,8.93,23.13,8.93h.67c13.85-.18,23-5.61,28.81-12.26,4.08,6.35,11.15,11.6,22.8,12.21.67,0,1.34,0,2,0,12.65,0,21.17-6.4,26.44-13.66,5.46,7.26,14.69,13.24,29.05,11.6C396.39,540,402.37,533.32,405,528c4.25-8.79,2.61-21-4.36-33a135.11,135.11,0,0,1,.08-14.46c37.13-1.95,67.65-15.66,90.83-40.79a71.22,71.22,0,0,0,34.32,9.2,63.42,63.42,0,0,0,14.85-1.76c42.59-10.23,66.62-62.73,53.58-117C584.49,289.54,556.44,258.49,524.35,250.51Zm-24.42-18.08,8.51,16.06h-.22a63.37,63.37,0,0,0-40.33,14.44l-3-25.67a8.38,8.38,0,0,1,6.54-9.14h0a8.55,8.55,0,0,1,1.76-.19h0l19.3.06A8.33,8.33,0,0,1,499.93,232.43ZM464.2,181.66a185.65,185.65,0,0,1,27.27,33.22l-17.81,0a193.69,193.69,0,0,0-33.15-42.29,172.29,172.29,0,0,0-36.71-27.25C425.7,151.93,445.91,164.08,464.2,181.66Zm-118-41.4c31.47,3.58,60,17.45,84.87,41.4a182.27,182.27,0,0,1,15.11,16.45c-27.33-13.81-60.33-19.55-98.56-17.07-43.21,2.8-79,13.41-107.11,31.63a169.6,169.6,0,0,1,23.66-30.89C287.5,157.76,315,143.84,346.21,140.26ZM231.06,181.78c17.6-18.13,37.6-30.5,59.75-37A159.31,159.31,0,0,0,254.42,173,179.74,179.74,0,0,0,224,215.36a21.39,21.39,0,0,0-4.74-.53h0l-13.13,0A169.87,169.87,0,0,1,231.06,181.78ZM192.6,232.44A8.37,8.37,0,0,1,200,228l19.3-.06h0a9.24,9.24,0,0,1,1.3.11A148.35,148.35,0,0,0,201.73,249a63.27,63.27,0,0,0-7.66-.48,66,66,0,0,0-10.42.84Zm-27.92,202c-35.55-8.54-55.24-53.95-43.89-101.23,9.9-41.18,40.31-71.16,72.51-71.63l-.26.46c-.6,1-1.18,2-1.76,3.06-19.33,14.88-34,38.48-40.4,65.05-10.16,42.34,1.93,84.55,29.51,105.53A50.74,50.74,0,0,1,164.68,434.46ZM167.63,374c0,.17,0,.34,0,.5,0,.43,0,.87.08,1.3,0,.65.06,1.29.11,1.94,0,.35.06.71.09,1.06l.12,1.48c0,.42.07.84.12,1.26s.12,1.07.18,1.61v.13c.06.46.11.93.16,1.39,0,.25.06.49.09.73.07.56.16,1.12.24,1.68s.15,1.06.23,1.59l.06.42c0,.08,0,.16,0,.23.09.58.2,1.16.29,1.73.13.75.25,1.5.39,2.25l.09.43c.07.37.15.74.22,1.11,0,.08,0,.15,0,.23.15.75.3,1.5.46,2.26.07.33.15.67.22,1l.33,1.46c.12.54.24,1.08.37,1.63s.27,1.1.41,1.65l.36,1.45.27,1c.17.64.35,1.28.52,1.92.1.34.19.69.29,1l.17.62c-12.62-19.67-16.77-47.66-10-75.91a113.1,113.1,0,0,1,12.27-30.69c-.41,1.46-.81,2.95-1.19,4.44-.09.32-.17.65-.25,1-.44,1.76-.87,3.53-1.27,5.32l-.15.66c-.42,1.91-.81,3.83-1.18,5.78l-.24,1.24q-.54,2.91-1,5.88c-.05.27-.09.54-.13.82-.29,1.86-.55,3.74-.8,5.64,0,.31-.09.63-.12.95-.26,2-.48,4.05-.69,6.1,0,.43-.09.87-.13,1.31q-.3,3.12-.53,6.3l0,.54c-.14,2-.25,4.06-.35,6.12,0,.4,0,.79-.05,1.19q-.14,3.19-.19,6.43c0,.44,0,.89,0,1.33q-.06,3.36,0,6.76C167.55,371.54,167.58,372.77,167.63,374Zm236.3,93.21c2-3,7.54-8.19,21.15-9.18a6.55,6.55,0,0,0-.94-13.07,56,56,0,0,0-13.29,2.47c7.39-9.9,16.11-11,16.74-11.05a6.55,6.55,0,0,0-1-13.07c-1.19.09-11.86,1.18-22,11.35-12.89,13-18.62,34.06-17,62.68a6.49,6.49,0,0,0,1,3.09c5.18,8.33,7,16.91,4.59,21.85-1.67,3.46-5.74,5.58-12.09,6.32-16.95,1.93-20.46-12.4-21-15.25a6.55,6.55,0,0,0-12.87-.29c-.16.75-4.2,18.37-21.46,17.48-14.64-.76-15.41-12.71-15.26-16.69q0-.32,0-.6a6.54,6.54,0,0,0-12.44-2.84l-.1.24a4.57,4.57,0,0,0-.28.76,6.13,6.13,0,0,0-.21.87v0h0c-.29,1.84-3.42,18-24.18,18.27-6.43.08-11.09-1.45-13.86-4.55-4.05-4.54-3.51-11.62-3.41-12.59v0c0-.24.05-.49.06-.73,0-.07,0-.14,0-.21a6.53,6.53,0,0,0-11.75-4l-.12.16a6.18,6.18,0,0,0-.4.64,4.52,4.52,0,0,0-.25.49,2.39,2.39,0,0,0-.15.37c0,.05-.05.1-.07.16-1,2.72-6.74,16.07-26.23,12-6.52-1.36-8.18-3.28-8.58-4-1.23-2.3.93-7.67,2.67-12s3.59-8.89,3.59-13.31c0-10.87.38-21.89.38-22a6.54,6.54,0,0,0-1.06-3.82,250.83,250.83,0,0,1-15.93-29.62h0c-.95-2.05-1.78-3.94-2.57-5.77a7.35,7.35,0,0,0-.32-.77c-.28-.64-.53-1.27-.8-1.9s-.61-1.47-.9-2.19-.53-1.33-.79-2-.58-1.45-.85-2.17-.5-1.32-.74-2-.54-1.43-.79-2.13-.46-1.32-.7-2-.49-1.39-.72-2.08-.43-1.32-.65-2-.45-1.36-.66-2-.4-1.33-.6-2-.41-1.31-.6-2-.37-1.33-.55-2-.37-1.27-.53-1.9-.35-1.35-.52-2-.31-1.22-.46-1.82-.31-1.37-.47-2.05-.27-1.16-.4-1.74-.27-1.36-.41-2-.24-1.13-.34-1.69-.24-1.37-.36-2.05-.2-1.08-.29-1.62c-.11-.7-.2-1.39-.3-2.08-.08-.51-.16-1-.23-1.53-.09-.71-.17-1.41-.25-2.12-.05-.48-.12-1-.17-1.44-.07-.74-.13-1.46-.19-2.2,0-.43-.09-.86-.12-1.29,0-.79-.09-1.57-.13-2.35,0-.36,0-.73-.06-1.08,0-1.14-.08-2.26-.09-3.37a267.49,267.49,0,0,1,1.18-27.71c2.36-24.42,8.25-46.13,17.62-64.84q1.27-2.55,2.64-5a142.57,142.57,0,0,1,8-12.84h0c27.6-39.41,74.16-61.5,138.41-65.68,44.84-2.9,81.74,6.11,109.84,26.78-.37.36-.75.71-1.1,1.11a21.51,21.51,0,0,0-5.32,16.77L456.1,275c-17.63,22.66-24.76,57.07-16.31,92.24,6.61,27.53,21.62,50.65,40.59,65.19C460.59,453.11,434.93,464.78,403.93,467.21Zm133.68-32.75a50.81,50.81,0,0,1-11.79,1.39c-10.89,0-21.58-3.39-31.37-9.45l0,0a6.29,6.29,0,0,0-1.42-.9c-18.77-12.23-34-34.35-40.48-61.27-7.74-32.24-1-63.61,15.29-83l.35-.42A53.54,53.54,0,0,1,496.43,263a50.29,50.29,0,0,1,11.79-1.4,54.23,54.23,0,0,1,10.32,1l.25.05c28.41,5.67,53.84,33.59,62.72,70.56C592.86,380.51,573.17,425.92,537.61,434.46Z"/><path d="M520.36,270.32a31.64,31.64,0,0,0-7.39.87c-26.17,6.29-38.78,44.05-28.71,86,9,37.34,33,64.44,57.24,64.44a31.58,31.58,0,0,0,7.39-.87c13.11-3.15,23.21-14.28,28.42-31.34,4.85-15.85,5-35.25.29-54.64C568.64,297.42,544.57,270.32,520.36,270.32Zm44.42,115.25C561,398,554.25,406,545.83,408a18.45,18.45,0,0,1-4.33.51c-17.63,0-37.17-23.89-44.5-54.39-8.07-33.62.64-65.76,19-70.18a19,19,0,0,1,4.33-.5c17.63,0,37.18,23.89,44.5,54.39C569,355,569,371.93,564.78,385.57Z"/><path d="M401.76,406.83c-5,7.81-12.71,12.11-22.34,12.44l-1.23,0a43.93,43.93,0,0,1-10.92-1.48,67,67,0,0,1-11.88-4.4l-5.91-2.8v6.53a19.67,19.67,0,0,0,1,6.15c-1.61-1.14-3.24-2.41-4.85-3.81-16.18-14-23.58-33.94-22-59.28,1.62-26.44,13-41.6,31.1-41.6a33.23,33.23,0,0,1,6.47.64c15.4,3,30.84,16.22,39.16,34.21C409.51,373.38,410.07,393.83,401.76,406.83Z"/><path class="cls-12" d="M379.42,419.27l-1.23,0a38.93,38.93,0,0,1-4.88-.32,47.45,47.45,0,0,1-6-1.16,67,67,0,0,1-11.88-4.4l-5.91-2.8v6.53a19.67,19.67,0,0,0,1,6.15c-1.61-1.14-3.24-2.41-4.85-3.81a61.58,61.58,0,0,1-13.18-15.85c-6.92-12-9.89-26.49-8.85-43.43,1.62-26.44,13-41.6,31.1-41.6a33.23,33.23,0,0,1,6.47.64,50.49,50.49,0,0,0-18,29.48A69.71,69.71,0,0,0,341.72,366c.91,20.89,11,42.61,32.6,51.48A49.4,49.4,0,0,0,379.42,419.27Z"/><path class="cls-13" d="M343.1,393.74s-17.2-29.94,2.93-63c-19.61,18.06-17.27,53.85-4.76,69.34"/><path class="cls-13" d="M374.32,417.47l-1,1.5a47.45,47.45,0,0,1-6-1.16,67,67,0,0,1-11.88-4.4l-5.91-2.8v6.53a19.67,19.67,0,0,0,1,6.15c-1.61-1.14-3.24-2.41-4.85-3.81a61.58,61.58,0,0,1-13.18-15.85c2.91-3.8,5.07-9.05,5.12-16.25.06-10.48,2.06-17.21,4.17-21.39C342.63,386.88,352.68,408.6,374.32,417.47Z"/><path d="M354.69,322.72c15.82,0,33,13.35,41.87,32.46,8.62,18.66,9.28,37.6,1.72,49.41-4.42,6.91-11.36,10.57-20.09,10.57-6.3,0-13.38-1.85-21-5.48l-11.8-5.6v9.55c-13.08-12.94-19-30.81-17.65-53.18,1.47-24,11.31-37.73,27-37.73m0-8.26c-17.75,0-33.27,13.51-35.23,45.49-4,64.74,50.44,77.25,50.44,77.25s-16.29-6.95-16.29-20.06c9.11,4.33,17.36,6.28,24.58,6.28,30.56,0,42.89-34.85,25.86-71.7-10.65-23.06-31.17-37.26-49.36-37.26Z"/><path d="M247.87,419.86c-1,1-2.09,1.91-3.12,2.76a21.36,21.36,0,0,0,.7-5.48V410.3l-6,3.19a48.43,48.43,0,0,1-16.49,5.57,29.44,29.44,0,0,1-3.71.23,22.85,22.85,0,0,1-19.74-10.63c-8.52-12.77-8.41-34.5.27-55.35,8.5-20.45,25.2-34.71,40.62-34.71a21.31,21.31,0,0,1,9.92,2.35c10.16,5.26,16.58,19.1,17.69,39.22C269.38,385.77,262.61,405.84,247.87,419.86Z"/><path class="cls-12" d="M214.12,373.74c-3.25,17.51-2.2,35.07,8.79,45.32a29.44,29.44,0,0,1-3.71.23,22.85,22.85,0,0,1-19.74-10.63,38.4,38.4,0,0,1-5.66-15.49c-1.82-11.75.16-26,5.93-39.86,8.5-20.45,25.2-34.71,40.62-34.71a21.31,21.31,0,0,1,9.92,2.35c-11.58,7-26.47,19.05-32.26,37.4A131.28,131.28,0,0,0,214.12,373.74Z"/><path class="cls-13" d="M210.55,399.55s-12.93-32,11.54-62c-21.91,15.21-24.49,51-14.23,68"/><path class="cls-13" d="M222.91,419.06a29.44,29.44,0,0,1-3.71.23,22.85,22.85,0,0,1-19.74-10.63,38.4,38.4,0,0,1-5.66-15.49c2.4-5.15,5.8-10.12,10.45-12.16a32.77,32.77,0,0,0,9.87-7.27C210.87,391.25,211.92,408.81,222.91,419.06Z"/><path d="M240.36,322.72c5.85,0,10.78,2.54,14.66,7.55,5,6.51,8.08,16.93,8.81,30.13,1.19,21.45-3.6,38.77-14.25,51.59v-8.54l-12.11,6.39c-6.69,3.53-12.84,5.32-18.27,5.32a18.62,18.62,0,0,1-16.3-8.79c-7.77-11.65-7.52-31.86.64-51.48a61.25,61.25,0,0,1,17.28-24.05c6.4-5.24,13.34-8.12,19.54-8.12m0-8.26c-16.38,0-34.86,14.2-44.45,37.26-15.33,36.85-4.22,71.7,23.29,71.7,6.5,0,13.92-1.95,22.13-6.28,0,13.11-14.67,20.06-14.67,20.06s49-12.51,45.42-77.25c-1.77-32-15.74-45.49-31.72-45.49Z"/><path d="M319.51,464.86a12.14,12.14,0,0,1-10.77,6,19.45,19.45,0,0,1-8-1.91,40.49,40.49,0,0,1-11.32-8.17l-2.69-2.62L284.2,461a33,33,0,0,1-10.47,8.18,17.67,17.67,0,0,1-7.6,1.82,13.16,13.16,0,0,1-9.87-22.1c11.41-13.29,25.76-25.73,30.93-30.09,2,1.27,5.23,3.41,8.92,6.17,8.12,6,18.56,15,23.52,24.44A15.78,15.78,0,0,1,319.51,464.86Z"/><path class="cls-12" d="M271.31,448.89c-3.69,5.15-4.3,10.75-2,15.27v0a12.74,12.74,0,0,0,2.74,3.62,12.44,12.44,0,0,0,1.67,1.37,22,22,0,0,1-2.17.88,16.73,16.73,0,0,1-5.43.94,13.16,13.16,0,0,1-9.87-22.1c5.09-5.93,10.76-11.68,15.94-16.61,6.45-6.17,12.12-11.06,15-13.48,2,1.27,5.23,3.41,8.92,6.17C288.21,431.48,276.47,441.69,271.31,448.89Z"/><path class="cls-13" d="M272.27,466.87l-.21.93-.5,2.25a16.73,16.73,0,0,1-5.43.94,13.16,13.16,0,0,1-9.87-22.1c5.09-5.93,10.76-11.68,15.94-16.61l3.44-1.36c-.44.61-16.11,21.89-12.89,25.16,3.22-8.61,19.11-23.66,19.6-24.12-.36.42-8.69,10.19-13.49,20.12-2.77,5.73-1.33,9.69.45,12.08v0A10.84,10.84,0,0,0,272.27,466.87Z"/><path d="M287.5,423.29c8.65,5.75,23.19,16.92,28.94,27.81a12.17,12.17,0,0,1,0,11.89,8.68,8.68,0,0,1-7.68,4.29c-4.87,0-10.83-3.21-16.8-9L286.56,453l-5,5.58c-5.12,5.68-10.59,8.81-15.38,8.81a9.68,9.68,0,0,1-8.92-5.64c-.76-1.65-2.1-6,1.79-10.5,10-11.63,22.3-22.64,28.49-27.95m-.61-8.93S268,429.65,253.53,446.53a16.78,16.78,0,0,0,12.61,28.08c6.2,0,13.48-3.15,20.75-11.2,8.15,8,15.67,11.1,21.85,11.1,13.39,0,20.48-14.69,14.09-26.79-9.33-17.67-35.94-33.36-35.94-33.36Z"/><path d="M312.61,340.39l.41-.86c.27-.55.66-1.35,1.17-2.37,1-2,2.51-4.85,4.45-8.05A72.89,72.89,0,0,1,325.9,319c.71-.86,1.51-1.64,2.27-2.48l1.23-1.16a15.24,15.24,0,0,1,1.26-1.14,38.5,38.5,0,0,1,5.48-4c1-.52,1.94-1.17,3-1.59.52-.23,1-.46,1.53-.72l1.57-.59c1-.44,2.12-.68,3.18-1a11.11,11.11,0,0,1,1.61-.39c.54-.11,1.07-.24,1.6-.36,1.07-.24,2.16-.29,3.21-.49s2.12-.16,3.15-.28,2-.06,3-.11a27.6,27.6,0,0,1,2.88,0l2.69.08c.86,0,1.67.13,2.44.17,1.55.12,2.93.16,4.05.32s2,.19,2.64.25l1,.06-.8-.52c-.53-.31-1.29-.82-2.31-1.37a31.93,31.93,0,0,0-3.75-1.86c-.75-.33-1.54-.7-2.4-1l-2.75-.9a24.4,24.4,0,0,0-3.06-.79,28.79,28.79,0,0,0-3.37-.61c-1.17-.13-2.38-.3-3.64-.34s-2.54,0-3.85,0a35.15,35.15,0,0,0-8.07,1.44l-2,.64c-.66.26-1.32.55-2,.84a40.54,40.54,0,0,0-3.83,1.95A38.41,38.41,0,0,0,320,314.55a42.9,42.9,0,0,0-3.57,6.51,46.49,46.49,0,0,0-3.4,11.5c-.27,1.6-.36,3-.45,4.18s0,2.07,0,2.69S312.61,340.39,312.61,340.39Z"/><path d="M224.39,306.63l1.83-.25,2.14-.22,2.41-.28c.84-.1,1.73-.14,2.64-.21,1.83-.21,3.8-.21,5.85-.29a58.82,58.82,0,0,1,6.29.33c1.08.05,2.12.33,3.19.48a9.54,9.54,0,0,1,1.58.37l1.57.38a28.27,28.27,0,0,1,5.89,2.55,25.72,25.72,0,0,1,2.7,1.73,31.93,31.93,0,0,1,2.45,2.07,33.42,33.42,0,0,1,4.24,4.82,46.43,46.43,0,0,1,3.35,5.3c1,1.78,1.83,3.54,2.57,5.22,1.47,3.34,2.53,6.3,3.27,8.4l.81,2.47.29.89s.08-.32.19-.92.26-1.5.34-2.63a36.23,36.23,0,0,0,.15-4.13,42.19,42.19,0,0,0-.42-5.39A43.52,43.52,0,0,0,276.3,321a36.68,36.68,0,0,0-2.88-6.81,30.94,30.94,0,0,0-4.76-6.6,17.82,17.82,0,0,0-1.51-1.5c-.53-.47-1.06-1-1.62-1.41a32.47,32.47,0,0,0-3.61-2.42,29.83,29.83,0,0,0-8-3.15,34.79,34.79,0,0,0-8.07-.8,41.55,41.55,0,0,0-7.31.83l-3.24.83c-1.05.25-2,.66-2.94,1s-1.82.65-2.64,1l-2.29,1.1c-.71.36-1.38.67-2,1l-1.61,1c-1,.57-1.71,1.1-2.22,1.42l-.77.53.94-.08C222.4,306.87,223.3,306.8,224.39,306.63Z"/><path d="M340.34,450.16c-.16-.57-.33-1.15-.5-1.73l-.26-.87,0-.11-.1-.25-.09-.24-.19-.47-.81-1.89a43.63,43.63,0,0,0-4.12-6.94,64.37,64.37,0,0,0-5-6c-.85-1-1.75-1.85-2.65-2.71s-1.77-1.73-2.69-2.51c-1.78-1.62-3.6-3.07-5.33-4.42s-3.44-2.54-5-3.6-3.08-2-4.43-2.77-2.55-1.42-3.53-1.94-1.8-.89-2.34-1.14l-.85-.37.6.7c.41.43,1,1.12,1.72,1.93l2.68,3,3.48,3.77c2.56,2.75,5.52,5.92,8.58,9.35,1.53,1.71,3.09,3.5,4.6,5.33s3,3.7,4.4,5.62a52.14,52.14,0,0,1,3.69,5.81l.72,1.47.19.36.09.18,0,0v0s-.08-.24,0-.11l0,.11.33.85.65,1.68c.22.57.31,1,.48,1.48s.33.94.42,1.44.21,1,.33,1.49a10.64,10.64,0,0,1,.23,1.45c0,.48.16,1,.15,1.43a17.53,17.53,0,0,1-.45,5.25,15.34,15.34,0,0,1-1.77,4.23,16.82,16.82,0,0,1-2.29,3,19.48,19.48,0,0,1-1.9,1.64l-.76.52.92-.14a13.32,13.32,0,0,0,2.54-.84,15.08,15.08,0,0,0,3.58-2.33,16,16,0,0,0,3.53-4.5,19,19,0,0,0,2-6.59,25,25,0,0,0-.38-7.61C340.63,451.48,340.52,450.73,340.34,450.16Z"/><path d="M550.53,319.67a19.81,19.81,0,0,0-12.11-4.27h0a18.37,18.37,0,0,0-11.68,4.21,18.52,18.52,0,0,0-2.69-.19,18.22,18.22,0,0,0-4.93.68,19.22,19.22,0,0,0-12.73,12c-3.83,9.92-.35,22.36,8.12,28.89l17.69,13.64,12.63,9.74,5.76-14.89,7.1-18.38.95-2.5C562.47,338.64,559,326.2,550.53,319.67Zm-3,24.65-.94,2.45-7.1,18.38-17.69-13.64a14,14,0,0,1-4.25-15.2,7.38,7.38,0,0,1,4.79-4.74,6.28,6.28,0,0,1,1.73-.24,7.89,7.89,0,0,1,4.83,1.8l2.09,1.61.93-2.45a7.4,7.4,0,0,1,4.8-4.74,6.55,6.55,0,0,1,1.72-.23,7.9,7.9,0,0,1,4.83,1.79A14,14,0,0,1,547.51,344.32Z"/><path class="cls-1" d="M277.64,287.59A12.81,12.81,0,0,1,274.4,278a15.75,15.75,0,0,1,5.73-10.85,16.6,16.6,0,0,1,10.67-4,15.29,15.29,0,0,1,3.07.31,13.34,13.34,0,0,1,6.35,3.21,16.6,16.6,0,0,1,10.07-3.47,14.41,14.41,0,0,1,3,.31,13.12,13.12,0,0,1,7.2,4.07,12.8,12.8,0,0,1,3.24,9.58,15.77,15.77,0,0,1-5.73,10.85l-2.3,1.95-20.46,17.14Z"/><path d="M290.8,267.2h0a11,11,0,0,1,2.23.23,9.16,9.16,0,0,1,5,2.83l1.78,2,2.32-2a12.61,12.61,0,0,1,8.1-3h0a10.86,10.86,0,0,1,2.22.22,9.18,9.18,0,0,1,5,2.83c3.68,4.07,2.74,10.65-2.09,14.7L313.16,287l-17.48,14.66-15.07-16.7c-3.68-4.07-2.74-10.64,2.09-14.69a12.67,12.67,0,0,1,8.1-3m0-8a20.65,20.65,0,0,0-13.26,4.91,19.76,19.76,0,0,0-7.13,13.62,16.77,16.77,0,0,0,4.26,12.54L289.74,307l5.17,5.72,5.91-4.95,17.48-14.65,2.34-2a19.72,19.72,0,0,0,7.13-13.61,16.77,16.77,0,0,0-4.26-12.55,17.21,17.21,0,0,0-9.35-5.3,18.78,18.78,0,0,0-3.83-.39,20.53,20.53,0,0,0-9.95,2.59,17.54,17.54,0,0,0-5.7-2.24,18.71,18.71,0,0,0-3.83-.4h-.05Z"/><path class="cls-8" d="M307.87,277.71a4.36,4.36,0,0,0-2.39-1.35,5.29,5.29,0,0,0-1.06-.11,6,6,0,0,0-3.86,1.44l-1.1.93-.84-.94a4.44,4.44,0,0,0-2.4-1.34,5.19,5.19,0,0,0-1.05-.11,6,6,0,0,0-3.87,1.44c-2.29,1.92-2.74,5-1,7l7.16,7.93,8.31-7,1.1-.93C309.17,282.76,309.62,279.64,307.87,277.71Z"/><text class="cls-14" transform="matrix(0.31, -0.95, 0.95, 0.31, 81.26, 312.35)">H</text><text class="cls-14" transform="matrix(0.56, -0.83, 0.83, 0.56, 111.04, 227.49)">E</text><text class="cls-14" transform="translate(140.01 180.9) rotate(-41.85)">A</text><text class="cls-14" transform="matrix(0.91, -0.42, 0.42, 0.91, 196.9, 128.75)">D</text><text class="cls-14" transform="matrix(0.97, -0.23, 0.23, 0.97, 271.07, 96.98)"> </text><text class="cls-14" transform="translate(296.32 85.45) rotate(1.39)">M</text><text class="cls-14" transform="translate(402.49 89.67) rotate(21.21)">A</text><text class="cls-14" transform="translate(474.39 118.88) rotate(35.1)">S</text><text class="cls-14" transform="matrix(0.68, 0.74, -0.74, 0.68, 516.2, 147)">T</text><text class="cls-14" transform="translate(558.68 193.11) rotate(60.07)">E</text><text class="cls-14" transform="translate(587.08 240.17) rotate(73.36)">R</text></g></g></svg>